<svg xmlns="http://www.w3.org/2000/svg" viewBox="0 0 106.36 106.36"><defs><style>.cls-1,.cls-3{fill:#ff0;}.cls-2,.cls-3{fill-rule:evenodd;}.cls-3{stroke:#2b2b2a;stroke-miterlimit:22.93;stroke-width:0.57px;}</style></defs><g id="Слой_2" data-name="Слой 2"><g id="Слой_1-2" data-name="Слой 1"><circle cx="53.18" cy="53.18" r="53.18" transform="translate(-22.03 53.18) rotate(-45)"/><circle class="cls-1" cx="53.18" cy="53.18" r="46.74" transform="translate(-16.11 23.95) rotate(-22.13)"/><path class="cls-2" d="M79.29,77.61C80.15,70.05,74.52,64.75,71,62s-5.1-8.45-12.94-11c-7.3-2.4-14.49,1.08-17.83,4.66-2.53,2.72-2.51,3.58-5.61,6.48-1,1-2.17,1.85-3.16,2.78C21,74.72,28.47,91,40.31,87.86c3.27-.86,5.37-2.7,7.89-4C56,79.9,59.36,86.55,65.84,88,73.27,89.6,78.57,83.87,79.29,77.61Z"/><path class="cls-2" d="M42.2,28.24c-4.72,1-6.38,5.62-5.93,11.3.84,11,16,11.56,14.87-3.46C50.78,31.28,47.42,27.12,42.2,28.24Z"/><path class="cls-2" d="M60.68,28.16c-4.62.88-6.56,5.5-6.21,10.94.33,5.12,3.9,9.36,8.79,8.31C72.8,45.36,71.13,26.15,60.68,28.16Z"/><path class="cls-2" d="M36.27,53.44c1-5.23-1-10.11-5-11.51-5-1.75-9.11,2-9.7,6.38C19.65,62.61,34.23,64,36.27,53.44Z"/><path class="cls-2" d="M75.48,41.7c-4.85,1-6.61,5.18-6.22,10.76C70,63,85,63.9,84.17,49.47,83.91,44.75,80.62,40.63,75.48,41.7Z"/><path class="cls-2" d="M27.39,31.81c-4.56,1.07-2.94,7.49,1.29,6.38C33.08,37,31,31,27.39,31.81Z"/><path class="cls-2" d="M61.07,18.26c-4.06,1.09-2.27,7.59,1.86,6.25A3.26,3.26,0,0,0,61.07,18.26Z"/><path class="cls-2" d="M76.45,32c-3.92,1.71-1.63,7.86,2.53,6S80.05,30.43,76.45,32Z"/><path class="cls-2" d="M42.56,18.32c-4,1.52-1.86,7.61,2.1,6.14C48.91,22.87,46.46,16.86,42.56,18.32Z"/><path class="cls-3" d="M53.18,6.44A46.74,46.74,0,1,0,99.92,53.18,46.74,46.74,0,0,0,53.18,6.44Zm-16.91,47c-2,10.53-16.62,9.17-14.7-5.13.59-4.39,4.69-8.13,9.7-6.38,4,1.4,6,6.28,5,11.51Zm8.39-29c-4,1.47-6.13-4.62-2.1-6.14s6.35,4.55,2.1,6.14Zm-16,13.73c-4.23,1.11-5.85-5.31-1.29-6.38C31,31,33.08,37,28.68,38.19Zm7.59,1.35c-.45-5.68,1.21-10.29,5.93-11.3,5.22-1.12,8.58,3,8.94,7.84,1.11,15-14,14.41-14.87,3.46Zm4,48.32C28.47,91,21,74.72,31.45,64.93c1-.93,2.14-1.82,3.16-2.78,3.1-2.9,3.08-3.76,5.61-6.48,3.34-3.58,10.53-7.06,17.83-4.66,7.84,2.58,9.47,8.37,12.94,11s9.16,8,8.3,15.57c-.72,6.26-6,12-13.45,10.36C59.36,86.55,56,79.9,48.2,83.88c-2.52,1.28-4.62,3.12-7.89,4Zm29-35.4c-.39-5.58,1.37-9.75,6.22-10.76,5.14-1.07,8.43,3,8.69,7.77C85,63.9,70,63,69.26,52.46Zm-6-5.05c-4.89,1.05-8.46-3.19-8.79-8.31-.35-5.44,1.59-10.06,6.21-10.94,10.45-2,12.12,17.2,2.58,19.25ZM79,38c-4.16,1.88-6.45-4.27-2.53-6,3.6-1.57,6.59,4.14,2.53,6ZM62.93,24.51c-4.13,1.34-5.92-5.16-1.86-6.25A3.26,3.26,0,0,1,62.93,24.51Z"/></g></g></svg>