<svg xmlns="http://www.w3.org/2000/svg" viewBox="0 0 244.87 55.06"><defs><style>.cls-1{fill:#959596;fill-rule:evenodd;}</style></defs><g id="Слой_2" data-name="Слой 2"><g id="Слой_1-2" data-name="Слой 1"><path class="cls-1" d="M233.65,46.38h2.47l-1.21-3.68h0l-1.22,3.68Zm6-9,5.23,15.07H238.2l-.87-2.55h-4.89l-.87,2.55h-6.68l5.24-15.07Zm-16.18,0V52.49h-6.68V41.2h-2.9V52.49H207.2V37.42Zm-26.31-.24a7.71,7.71,0,0,1,6.72,3.87,7.75,7.75,0,0,1,1,3.89,8,8,0,0,1-1,3.92,7.56,7.56,0,0,1-2.8,2.84,8,8,0,0,1-7.83,0,7.6,7.6,0,0,1-2.8-2.83,8.11,8.11,0,0,1,0-7.8,7.72,7.72,0,0,1,6.73-3.89Zm-1.49,7.36a1.56,1.56,0,0,0,.42,1.14,1.52,1.52,0,0,0,2.14,0,1.57,1.57,0,0,0,.43-1.14,1.62,1.62,0,0,0-.42-1.14,1.44,1.44,0,0,0-.48-.32,1.54,1.54,0,0,0-.61-.12,1.44,1.44,0,0,0-1.06.44,1.57,1.57,0,0,0-.42,1.14ZM179.86,44a2.18,2.18,0,0,0,.55.07,1.91,1.91,0,0,0,.68-.12,1.61,1.61,0,0,0,.53-.34A1.48,1.48,0,0,0,182,43a1.94,1.94,0,0,0,.12-.7,1.7,1.7,0,0,0-.4-1.21,1.44,1.44,0,0,0-1.11-.43h-.72V44Zm8.46-1.45a5,5,0,0,1-.68,2.56,5,5,0,0,1-1.84,1.85,4.88,4.88,0,0,1-2.5.67,4.73,4.73,0,0,1-1.69-.3,7.7,7.7,0,0,1-1.75-1v6.21h-6.67V37.42h9.24a8.08,8.08,0,0,1,1.58.14,6.74,6.74,0,0,1,1.4.44,5.27,5.27,0,0,1,1.2.75,4.4,4.4,0,0,1,.92,1,4.88,4.88,0,0,1,.79,2.71Zm-17-5.09V44.1H168v8.39h-6.68V44.1h-3.36V37.42Zm-28.64,3.1h-.4a1.59,1.59,0,0,0-1.18.4,1.49,1.49,0,0,0-.41,1.09,1.28,1.28,0,0,0,.44,1.08,2.31,2.31,0,0,0,1.39.33h.16v-2.9Zm6.67-3.1V52.49h-6.67V46.91h0a2.29,2.29,0,0,0-2.09,1.4,9.9,9.9,0,0,0-.81,4.18h-6.92c.08-.77.19-1.48.32-2.13a11.39,11.39,0,0,1,.53-1.85,9.58,9.58,0,0,1,.84-1.66,11.2,11.2,0,0,1,1.22-1.58,4,4,0,0,1-1.27-1.44,4,4,0,0,1-.44-1.9,4.09,4.09,0,0,1,.17-1.22,3.8,3.8,0,0,1,.5-1.08,4,4,0,0,1,.79-.91,4.77,4.77,0,0,1,1.05-.69,6.5,6.5,0,0,1,2.87-.61ZM124,49.23h.72a1.42,1.42,0,0,0,1.11-.44,1.69,1.69,0,0,0,.4-1.2,2,2,0,0,0-.12-.71,1.66,1.66,0,0,0-.34-.54,1.5,1.5,0,0,0-.54-.34,1.67,1.67,0,0,0-.67-.13A2.29,2.29,0,0,0,124,46v3.28Zm8.46-1.84a5,5,0,0,1-.78,2.72,4.79,4.79,0,0,1-2.13,1.8,7.49,7.49,0,0,1-3,.58h-9.24V37.42H124v6.21a7.06,7.06,0,0,1,1.75-1,4.75,4.75,0,0,1,1.7-.3A4.91,4.91,0,0,1,130,43a5.07,5.07,0,0,1,2.51,4.4Zm-26.63-10v5a2,2,0,0,0,2-1.38,12.2,12.2,0,0,0,.45-3.65h6.7a12.2,12.2,0,0,1-.73,4.53,6.86,6.86,0,0,1-2.25,3,8.07,8.07,0,0,1,2.37,3,12.78,12.78,0,0,1,1,4.56h-7.1a20.14,20.14,0,0,0-.51-4.07,1.91,1.91,0,0,0-2-1.43v5.5H99.49V47a1.91,1.91,0,0,0-2,1.43A19.83,19.83,0,0,0,97,52.49h-7.1a12.78,12.78,0,0,1,1-4.56,8.07,8.07,0,0,1,2.37-3A7,7,0,0,1,91,42a12.23,12.23,0,0,1-.71-4.53H97a18.2,18.2,0,0,0,.12,2.1,6.8,6.8,0,0,0,.32,1.55,2.07,2.07,0,0,0,2.06,1.38v-5ZM89,37.42V41.2H83.17v1.87h4.07v3.78H83.17v1.86H89v3.78H76.5V37.42ZM65.45,49.17h.28a2.69,2.69,0,0,0,1.57-.36,1.38,1.38,0,0,0,.48-1.2c0-1.13-.62-1.7-1.87-1.7h-.46v3.26Zm0-5.79h.19a3.94,3.94,0,0,0,.91-.08,1.68,1.68,0,0,0,.62-.25,1,1,0,0,0,.34-.46,2,2,0,0,0,.1-.68,1.31,1.31,0,0,0-.45-1.11,2.05,2.05,0,0,0-1.28-.35h-.43v2.93Zm2.84-6a7.09,7.09,0,0,1,4.24,1.1,3.61,3.61,0,0,1,1.52,3.1,3.49,3.49,0,0,1-.51,1.93,4,4,0,0,1-1.45,1.31,5.17,5.17,0,0,1,1.76,1.43,3.35,3.35,0,0,1,.61,2,3.68,3.68,0,0,1-1.38,3,5.65,5.65,0,0,1-3.68,1.12H58.77V37.42Zm-12.41,0V48.69h1.85l-.92,6.37H52.64L52,52.5H43.6l-.66,2.56H38.78l-.92-6.37h.91a6.92,6.92,0,0,0,1.44-.15,1.77,1.77,0,0,0,.95-.57,2.78,2.78,0,0,0,.53-1.2,11.64,11.64,0,0,0,.24-2c0-.84.06-1.86.06-3s0-2.63,0-4.28ZM49.32,49.18V41.37H48.08c0,1.56-.16,2.92-.31,4.08a16.29,16.29,0,0,1-.63,3c-.09.27-.18.53-.28.76ZM37.17,37.42V41.2H31.32v1.87h4.07v3.78H31.32v1.86h5.85v3.78H24.65V37.42Zm-27.36,0,2.73,3.14,2.73-3.14h6.47V52.49H15.06V44.94l-2.52,2.92L10,44.94v7.55H3.33V37.42Z"/><path class="cls-1" d="M62.41,8c1-.81,1.81.77,1.05,1.27S61.61,8.59,62.41,8ZM55.4,6c-2.73-.71-2-4.4.54-3.48a1.76,1.76,0,0,1,1.12,1.61c-.64-.21-.91-.44-1.28.32A7.48,7.48,0,0,0,55.4,6ZM5.1,23.43a22.25,22.25,0,0,0,3.14,4.49c1.76,2,2.21,1.75,2.92,2.7l.25.35s.05.09.08.13c1.22,1.22,1.94,3.2,3.1,4.68l10-.11c-.69-2-3-2.56-4.05-3A11,11,0,0,1,22.16,27c2.75-.07,4.17.31,7-.43s4-1.91,6.25-2.93l.1.09a51.44,51.44,0,0,0,5,7.5l1.61,2,.51.71c.07.29,0,.18,0,.3s-.05.09-.35.07c-1.52-.1-6.57-6.06-7.8-7.16.51,3.5,3,8.49,6,8.58,1.79.06,13.67.29,14.32-.25l-.2-.22c-.84-1-1.25-2.07-3.16-2.86-1.12-.46-2.18-.43-3.35-3.18C45.62,23.51,49,19,54.5,17.48c1.62-.44,4.68-.16,5.75-.77,2.42-1.38,1.91-1.4,5.21-1.32a4,4,0,0,0,4-2.45,2,2,0,0,1-.77-1.34c.59-.44.54-.09,1.15-.4L66,8.65c-.58-.43-.61-.39-.81-1.3-.5-2.31-2.22-3-4.65-4C60.1-.49,57.78.46,57.42,1.56,56.21,1,55.18,0,53.37.87c-1,.48-.8,1.47-4.08.8C46.94,1.2,44.66-.68,40.45.26,37.61.9,35.6,3,32.4,2.37c-5.77-1-11.79-2.48-17.89.64C9.73,5.46,6,8.87,4.63,14.24,3.63,18.09,4.25,19.91,5.1,23.43Z"/><path class="cls-1" d="M.51,30.57c-.27.52-.3.26-.51.92.57.7,1.59,3.2,2.27,4.29l6-.06-1-2.56,2.31-1c-.07-.51-3.8-4.62-4.45-5.47-.92-1.28-.56-1-1-1C2.92,27.58,2,29.55.51,30.57Z"/></g></g></svg>