<svg xmlns="http://www.w3.org/2000/svg" viewBox="0 0 504.38 111.18"><defs><style>.cls-1,.cls-3{fill-rule:evenodd;}.cls-2,.cls-3{fill:#ff0;}.cls-3{stroke:#2b2b2a;stroke-miterlimit:22.93;stroke-width:0.43px;}</style></defs><g id="Слой_2" data-name="Слой 2"><g id="Слой_1-2" data-name="Слой 1"><path class="cls-1" d="M123.73,84.53h27.65c12.8,0,20.3-5.6,20.3-14.79,0-7.43-4.13-11.1-10.64-13.25,4.74-2.07,8.27-5.74,8.27-12a11.82,11.82,0,0,0-3.45-8.8c-3.14-3.14-7.89-4.83-14.63-4.83h-27.5V84.53Zm14.48-12V62.7h11.34c5,0,7.27,1.91,7.27,4.82,0,3.3-2.6,5.06-7.12,5.06Zm0-20.3V42.86h9.65c4.44,0,6.74,1.68,6.74,4.59,0,3.3-2.53,4.83-7,4.83ZM198.9,85.52c8.27,0,14-3.37,18-8.42l-8-6.67c-3,2.91-5.75,4.22-9.2,4.22-4.51,0-7.81-2.3-9-6.82h27.73c.08-1,.08-2.07.08-3,0-12.18-6.59-22.67-20.91-22.67-12.26,0-20.91,9.57-20.91,21.68,0,13,9.19,21.67,22.21,21.67ZM190.47,60.4c.77-4.52,3.37-7.51,7.2-7.51,4,0,6.67,2.91,7.2,7.51ZM237.3,85.45a15.64,15.64,0,0,0,12.18-5.21v4.29h14.4V60.71c0-5.83-1.31-10.12-4.45-13.18-3.29-3.29-8.35-5.05-15.77-5.05a41.72,41.72,0,0,0-16.78,3.21l3,10.27a29.09,29.09,0,0,1,11.41-2.3c5.59,0,8.27,2.45,8.27,6.74v.69a31.78,31.78,0,0,0-10-1.61c-9.73,0-16.24,4.44-16.24,13s6,13,13.94,13Zm5.21-9.12c-3,0-5.14-1.68-5.14-4.52,0-3.22,2.46-5.28,6.67-5.28a15.35,15.35,0,0,1,5.67,1.07v1.91c0,4.14-3,6.82-7.2,6.82ZM272,84.53h14.55V71.66c0-9.58,4.29-13.94,11.88-13.94h1.22V42.4c-6.89-.31-10.72,3.37-13.1,9V43.09H272V84.53Zm50,.84A20.72,20.72,0,0,0,332.1,83V71.58A12.8,12.8,0,0,1,326.58,73c-2.68,0-4-1.23-4-4.14v-14h9.65V43.09H322.6V32.6H308.05V43.09h-4.91V54.81h4.91V71.66c0,9.88,5.2,13.71,13.94,13.71Zm17.26-.84H353.8V71.66c0-9.58,4.29-13.94,11.87-13.94h1.23V42.4c-6.9-.31-10.73,3.37-13.1,9V43.09H339.25V84.53Zm43.45.92a15.64,15.64,0,0,0,12.18-5.21v4.29h14.4V60.71c0-5.83-1.3-10.12-4.44-13.18-3.3-3.29-8.35-5.05-15.78-5.05a41.75,41.75,0,0,0-16.78,3.21l3,10.27a29.12,29.12,0,0,1,11.41-2.3c5.59,0,8.28,2.45,8.28,6.74v.69a31.9,31.9,0,0,0-10-1.61c-9.73,0-16.24,4.44-16.24,13s6.05,13,13.94,13Zm5.21-9.12c-3,0-5.13-1.68-5.13-4.52,0-3.22,2.45-5.28,6.66-5.28a15.31,15.31,0,0,1,5.67,1.07v1.91c0,4.14-3,6.82-7.2,6.82Zm49.5,9.19c9.12,0,14.63-3.83,18.46-9.5L446,68.9c-2.29,2.68-4.36,4.37-7.81,4.37-4.9,0-8.27-4.06-8.27-9.42s3.22-9.35,8.5-9.35a8.73,8.73,0,0,1,7.51,4.06l9.72-7.05c-3.52-5.59-9.19-9.26-17.69-9.26-13.1,0-22.21,9.88-22.21,21.6a21.41,21.41,0,0,0,21.67,21.67Zm24.31-1h14.55V74.8L480,70.43l8.35,14.1h16L489.6,59.71,504,43.09H487.53L476.27,57V28.61H461.72Z"/><circle cx="55.59" cy="55.59" r="55.59"/><circle class="cls-2" cx="55.6" cy="55.59" r="48.86" transform="translate(-23.02 55.59) rotate(-45)"/><path class="cls-1" d="M82.88,81.13c.9-7.91-5-13.45-8.66-16.32S68.89,56,60.69,53.31c-7.63-2.51-15.14,1.13-18.64,4.87C39.41,61,39.43,61.92,36.19,65c-1,1-2.27,1.94-3.3,2.91C22,78.1,29.76,95.12,42.14,91.84c3.42-.9,5.61-2.82,8.25-4.18,8.15-4.14,11.66,2.81,18.43,4.33C76.59,93.66,82.13,87.67,82.88,81.13Z"/><path class="cls-1" d="M44.11,29.52c-4.93,1-6.66,5.87-6.19,11.81.87,11.5,16.72,12.08,15.54-3.62C53.08,32.7,49.57,28.35,44.11,29.52Z"/><path class="cls-1" d="M63.43,29.44c-4.83.92-6.86,5.74-6.49,11.43.34,5.35,4.08,9.79,9.19,8.69C76.1,47.42,74.35,27.33,63.43,29.44Z"/><path class="cls-1" d="M37.92,55.86c1-5.47-1.05-10.57-5.23-12C27.46,42,23.17,45.92,22.55,50.5,20.54,65.45,35.78,66.9,37.92,55.86Z"/><path class="cls-1" d="M78.9,43.59c-5.07,1-6.91,5.41-6.5,11.25.77,11,16.45,12,15.59-3.13C87.71,46.78,84.27,42.47,78.9,43.59Z"/><path class="cls-1" d="M28.63,33.25c-4.76,1.12-3.07,7.83,1.35,6.67C34.58,38.68,32.41,32.4,28.63,33.25Z"/><path class="cls-1" d="M63.84,19.09c-4.24,1.14-2.37,7.93,1.94,6.53a3.4,3.4,0,0,0-1-6.67,3.16,3.16,0,0,0-1,.14Z"/><path class="cls-1" d="M79.92,33.45c-4.1,1.79-1.71,8.22,2.64,6.27S83.68,31.81,79.92,33.45Z"/><path class="cls-1" d="M44.49,19.15c-4.18,1.59-1.94,8,2.2,6.42C51.13,23.91,48.57,17.62,44.49,19.15Z"/><path class="cls-3" d="M55.59,6.73a48.86,48.86,0,1,0,48.86,48.86A48.87,48.87,0,0,0,55.59,6.73ZM37.92,55.86c-2.1,11-17.38,9.59-15.37-5.36.62-4.59,4.9-8.5,10.14-6.67,4.18,1.46,6.27,6.56,5.23,12Zm8.77-30.31c-4.19,1.53-6.41-4.83-2.2-6.42s6.64,4.76,2.2,6.42ZM30,39.9c-4.42,1.16-6.11-5.55-1.35-6.67,3.8-.83,6,5.45,1.37,6.69l0,0Zm7.93,1.41c-.47-5.94,1.27-10.76,6.2-11.81,5.46-1.17,9,3.13,9.35,8.19C54.6,53.37,38.8,52.76,37.89,41.31Zm4.19,50.51C29.76,95.12,22,78.1,32.88,67.87c1-1,2.23-1.9,3.3-2.9,3.24-3,3.22-3.93,5.86-6.78,3.5-3.74,11-7.38,18.64-4.87,8.2,2.7,9.9,8.75,13.53,11.5s9.57,8.36,8.67,16.27c-.75,6.55-6.27,12.55-14.06,10.83-6.77-1.45-10.28-8.4-18.43-4.24-2.64,1.34-4.83,3.26-8.25,4.18l-.06,0Zm30.31-37C72,49,73.82,44.62,78.89,43.57c5.37-1.12,8.81,3.13,9.08,8.12.88,15.1-14.8,14.16-15.57,3.15v0Zm-6.27-5.28c-5.11,1.09-8.85-3.34-9.19-8.69-.37-5.69,1.66-10.52,6.49-11.44,10.92-2.09,12.67,18,2.7,20.13Zm16.46-9.82c-4.35,2-6.74-4.46-2.64-6.27,3.76-1.64,6.88,4.33,2.64,6.27Zm-16.8-14.1c-4.31,1.4-6.18-5.39-1.94-6.53a3.16,3.16,0,0,1,1-.14,3.4,3.4,0,0,1,1,6.67Z"/></g></g></svg>