<svg xmlns="http://www.w3.org/2000/svg" viewBox="0 0 243.23 48.57"><defs><style>.cls-1{fill:#0d3829;fill-rule:evenodd;}</style></defs><g id="Слой_2" data-name="Слой 2"><g id="Слой_1-2" data-name="Слой 1"><path class="cls-1" d="M232,39.89h2.47l-1.21-3.68h0L232,39.89Zm6-9L243.23,46h-6.66l-.87-2.55h-4.9L229.93,46h-6.68l5.24-15.07Zm-16.18,0V46h-6.67V34.71h-2.91V46h-6.67V30.93Zm-26.3-.24a7.65,7.65,0,0,1,3.92,1,7.55,7.55,0,0,1,2.79,2.82,7.65,7.65,0,0,1,1,3.89,7.78,7.78,0,0,1-1,3.91,7.49,7.49,0,0,1-2.79,2.85,8,8,0,0,1-7.84,0,7.46,7.46,0,0,1-2.79-2.84,8,8,0,0,1,0-7.79,7.53,7.53,0,0,1,2.79-2.84,7.67,7.67,0,0,1,3.94-1ZM194,38.05a1.54,1.54,0,0,0,.43,1.14,1.51,1.51,0,0,0,2.13,0,1.58,1.58,0,0,0,.44-1.14,1.66,1.66,0,0,0-.12-.64,1.51,1.51,0,0,0-.31-.5,1.23,1.23,0,0,0-.48-.32,1.53,1.53,0,0,0-.6-.12,1.41,1.41,0,0,0-1.06.44,1.54,1.54,0,0,0-.43,1.14Zm-15.8-.58a2.26,2.26,0,0,0,.56.07,1.85,1.85,0,0,0,.67-.12,1.53,1.53,0,0,0,.54-.35,1.56,1.56,0,0,0,.34-.54,2,2,0,0,0,.12-.71,1.69,1.69,0,0,0-.4-1.2,1.41,1.41,0,0,0-1.11-.43h-.72v3.28ZM186.68,36a4.93,4.93,0,0,1-.68,2.56,5,5,0,0,1-4.33,2.52,4.79,4.79,0,0,1-1.7-.3,7.62,7.62,0,0,1-1.75-1V46h-6.67V30.93h9.25a8,8,0,0,1,1.57.14,6.44,6.44,0,0,1,1.41.44,5.17,5.17,0,0,1,1.19.74,4.26,4.26,0,0,1,.92,1.06,4.85,4.85,0,0,1,.79,2.71Zm-17-5.09V37.6h-3.36V46h-6.68V37.6h-3.35V30.93ZM141,34h-.39a1.62,1.62,0,0,0-1.19.4,1.49,1.49,0,0,0-.41,1.09,1.3,1.3,0,0,0,.44,1.08,2.31,2.31,0,0,0,1.39.33H141V34Zm6.67-3.1V46H141V40.42h0a2.27,2.27,0,0,0-2.09,1.4,9.73,9.73,0,0,0-.8,4.18h-6.93c.08-.77.19-1.48.32-2.14A11.56,11.56,0,0,1,132,42a9.94,9.94,0,0,1,.84-1.66,10.59,10.59,0,0,1,1.23-1.58,4.07,4.07,0,0,1-1.28-1.44,4.12,4.12,0,0,1-.44-1.9,4.39,4.39,0,0,1,.17-1.22,4.31,4.31,0,0,1,.5-1.09,4.48,4.48,0,0,1,.79-.9,4.77,4.77,0,0,1,1-.69,6.53,6.53,0,0,1,2.87-.61ZM122.4,42.74h.72a1.45,1.45,0,0,0,1.11-.44,1.74,1.74,0,0,0,.4-1.2,1.83,1.83,0,0,0-.13-.71,1.5,1.5,0,0,0-.34-.54,1.68,1.68,0,0,0-.54-.35,1.81,1.81,0,0,0-.67-.12,2.22,2.22,0,0,0-.55.08v3.28Zm8.46-1.84a5,5,0,0,1-.79,2.72,4.71,4.71,0,0,1-2.13,1.79,7.32,7.32,0,0,1-3,.59h-9.24V30.93h6.67v6.21a7,7,0,0,1,1.74-1,4.75,4.75,0,0,1,1.7-.31,4.92,4.92,0,0,1,2.5.68,5,5,0,0,1,1.84,1.84,5.08,5.08,0,0,1,.68,2.56Zm-26.64-10v5a2.06,2.06,0,0,0,2.06-1.38,12.25,12.25,0,0,0,.44-3.65h6.7a12.22,12.22,0,0,1-.72,4.53,7,7,0,0,1-2.25,3,8,8,0,0,1,2.36,3,12.47,12.47,0,0,1,1,4.56h-7.1a20.14,20.14,0,0,0-.51-4.07,1.9,1.9,0,0,0-2-1.43V46H97.85V40.5a1.92,1.92,0,0,0-2,1.43A20.56,20.56,0,0,0,95.33,46h-7.1a12.67,12.67,0,0,1,1-4.56,8,8,0,0,1,2.36-3,7,7,0,0,1-2.26-3,12.44,12.44,0,0,1-.71-4.53h6.69a21,21,0,0,0,.12,2.1,7.39,7.39,0,0,0,.32,1.55A2.08,2.08,0,0,0,97.85,36v-5Zm-16.84,0v3.78H81.53v1.87H85.6v3.78H81.53v1.86h5.85V46H74.86V30.93ZM63.81,42.68h.28a2.67,2.67,0,0,0,1.57-.36,1.38,1.38,0,0,0,.48-1.2c0-1.13-.62-1.7-1.86-1.7h-.47v3.26Zm0-5.79H64a4.09,4.09,0,0,0,.92-.08,1.63,1.63,0,0,0,.61-.25,1,1,0,0,0,.34-.46,2,2,0,0,0,.11-.68,1.35,1.35,0,0,0-.46-1.12A2,2,0,0,0,64.25,34h-.44v2.93Zm2.85-6A7.07,7.07,0,0,1,70.89,32a3.6,3.6,0,0,1,1.52,3.1,3.43,3.43,0,0,1-.5,1.92,4,4,0,0,1-1.46,1.32,5.31,5.31,0,0,1,1.77,1.43,3.32,3.32,0,0,1,.6,2,3.71,3.71,0,0,1-1.37,3.05A5.68,5.68,0,0,1,67.76,46H57.14V30.93Zm-12.41,0V42.19h1.84l-.92,6.38H51L50.34,46H42l-.66,2.56H37.14l-.92-6.38h.91a6.52,6.52,0,0,0,1.45-.14,1.7,1.7,0,0,0,.94-.58,2.8,2.8,0,0,0,.54-1.19,14.17,14.17,0,0,0,.24-2c0-.83.06-1.85.05-3s0-2.62,0-4.27ZM47.69,42.69V34.88H46.44A39.69,39.69,0,0,1,46.13,39a15.49,15.49,0,0,1-.63,3,7.51,7.51,0,0,1-.28.76ZM35.53,30.93v3.78H29.68v1.87h4.07v3.78H29.68v1.86h5.85V46H23V30.93Zm-27.36,0,2.73,3.14,2.74-3.14H20.1V46H13.43V38.45L10.9,41.37,8.37,38.45V46H1.7V30.93Z"/><path class="cls-1" d="M51.41,6.53c.83-.66,1.49.64.86,1s-1.52-.53-.86-1ZM0,25.52c.47.57,1.5,2.95,2.06,3.85l6.38-.05a2.82,2.82,0,0,0-2.52-1.83c.64-1.45,3.12-2,3.44-2.07.75,1.07,1.31,2,2.81,3.94l8.23-.08c-.57-1.66-2.5-2.1-3.33-2.48a9.06,9.06,0,0,1,1.31-4.63c2.25-.06,3.42.25,5.7-.36s3.32-1.56,5.13-2.4l.08.07a41.16,41.16,0,0,0,4.13,6.16l1.33,1.67.41.58c.06.23,0,.15,0,.24s0,.08-.29.06c-1.25-.08-5.39-5-6.4-5.87.41,2.86,2.48,7,4.93,7,1.46,0,11.22.23,11.75-.21L45,29a5.54,5.54,0,0,0-2.59-2.35c-.92-.38-1.79-.35-2.75-2.61-2-4.71.74-8.45,5.29-9.67,1.33-.35,3.84-.13,4.71-.63,2-1.13,1.58-1.14,4.28-1.08a3.25,3.25,0,0,0,3.29-2,1.66,1.66,0,0,1-.63-1.1c.48-.36.45-.07,1-.33L54.39,7.1c-.48-.36-.5-.32-.66-1.07-.42-1.9-1.83-2.45-3.82-3.26-.4-3.18-2.3-2.4-2.6-1.49C46.32.85,45.48,0,44,.71c-.79.39-.66,1.21-3.35.66C38.71,1,36.84-.56,33.39.21c-2.34.53-4,2.21-6.61,1.74C22,1.09,17.1-.41,12.1,2.16,4.6,6,1.08,14.35,6.22,21.66a22.57,22.57,0,0,1,1.93,2.89,1.07,1.07,0,0,1-.75-.06,7.6,7.6,0,0,1-2.28-2,12.66,12.66,0,0,0-1.26-1.71A25.4,25.4,0,0,1,0,25.52ZM45.65,5c-2.23-.57-1.67-3.6.45-2.85A1.44,1.44,0,0,1,47,3.43c-.52-.18-.75-.37-1.05.26A7,7,0,0,0,45.65,5Z"/></g></g></svg>